<?xml version="1.0" standalone="no"?>
<!DOCTYPE svg PUBLIC "-//W3C//DTD SVG 20010904//EN"
 "http://www.w3.org/TR/2001/REC-SVG-20010904/DTD/svg10.dtd">
<svg version="1.0" xmlns="http://www.w3.org/2000/svg"
 width="260.000000pt" height="260.000000pt" viewBox="0 0 260.000000 260.000000"
 preserveAspectRatio="xMidYMid meet">
<metadata>
Created by potrace 1.11, written by Peter Selinger 2001-2013
</metadata>
<g transform="translate(0.000000,260.000000) scale(0.100000,-0.100000)"
fill="#000000" stroke="none">
<path d="M0 1300 l0 -1300 1300 0 1300 0 0 1300 0 1300 -1300 0 -1300 0 0
-1300z m1538 1204 c115 -33 242 -117 300 -197 30 -43 96 -177 87 -177 -2 0
-20 24 -38 53 -40 61 -148 165 -223 213 -75 48 -189 84 -267 84 -55 0 -76 -6
-143 -40 -44 -22 -92 -50 -107 -62 l-29 -24 38 -24 c50 -34 74 -68 81 -118 7
-49 -11 -58 -29 -14 -20 46 -69 91 -120 108 -26 8 -50 19 -53 23 -2 5 25 33
61 64 154 129 275 159 442 111z m626 -364 c53 -47 60 -80 53 -264 -5 -156 -20
-256 -38 -256 -5 0 -9 69 -9 153 0 185 -17 281 -55 315 -39 33 -66 27 -136
-28 -35 -27 -74 -50 -86 -50 -25 0 -73 38 -104 82 l-22 30 53 -36 c29 -20 59
-36 68 -36 8 0 33 19 54 42 57 61 86 78 140 78 39 0 54 -6 82 -30z m-930 -52
c-11 -37 -30 -69 -73 -126 -43 -59 -43 -58 3 -135 26 -45 29 -59 33 -165 3
-65 1 -180 -5 -257 -11 -149 -3 -268 23 -370 18 -71 81 -204 100 -211 21 -8
103 36 136 74 17 19 39 55 50 79 24 56 42 167 33 207 l-7 30 -22 -28 c-21 -26
-23 -27 -33 -10 -14 25 10 69 48 89 36 19 120 19 164 1 22 -9 69 -13 152 -12
127 2 154 11 173 53 18 40 12 142 -14 248 -40 160 -27 160 36 0 27 -67 32 -94
33 -167 1 -72 -2 -91 -20 -115 -36 -49 -87 -67 -186 -65 -48 1 -90 -2 -93 -8
-3 -5 -7 -51 -9 -102 -5 -131 -24 -181 -131 -334 -7 -10 -5 -24 9 -47 90 -155
120 -248 120 -377 1 -87 -1 -99 -28 -148 -49 -87 -130 -134 -207 -117 -39 9
-139 104 -139 134 0 21 45 59 57 48 3 -4 11 1 18 10 14 19 35 9 35 -17 0 -33
12 -50 36 -50 27 0 44 26 44 70 0 56 -84 202 -167 291 l-44 47 -82 -5 c-107
-7 -177 8 -286 63 -49 24 -101 44 -114 44 -48 0 -153 40 -217 83 -168 112
-262 321 -263 582 -1 96 4 137 22 203 13 45 28 85 33 88 15 10 29 -17 24 -46
-5 -30 18 -201 40 -290 21 -87 92 -231 149 -303 26 -32 48 -57 50 -55 2 2 -1
24 -7 48 -18 74 -15 303 5 399 44 204 77 246 77 98 0 -181 36 -358 100 -492
53 -112 59 -119 102 -111 48 9 114 54 134 91 14 26 15 40 5 102 -15 101 -14
153 10 336 12 88 19 195 17 237 -3 68 -7 83 -40 137 -50 81 -49 109 5 171 23
27 55 66 70 86 32 41 52 48 41 14z m822 -102 c23 -19 28 -32 29 -72 0 -58 -15
-73 -27 -27 -9 34 -42 61 -53 43 -10 -16 -42 -12 -49 6 -9 25 -7 33 14 54 26
26 53 25 86 -4z m-462 -60 c27 -11 37 -24 51 -65 9 -28 21 -53 26 -56 19 -12
8 -21 -21 -17 -21 3 -35 13 -46 33 -11 23 -21 29 -48 29 -61 0 -86 58 -34 80
31 12 34 12 72 -4z"/>
<path d="M446 1308 c20 -193 69 -312 168 -412 33 -34 82 -72 108 -84 48 -22
83 -29 76 -14 -30 63 -44 81 -66 87 -37 9 -133 112 -169 180 -37 72 -103 246
-103 274 0 11 -5 23 -11 26 -7 5 -8 -13 -3 -57z"/>
<path d="M744 1259 c39 -367 138 -520 376 -580 166 -42 343 -3 453 100 81 76
137 221 137 357 0 49 -23 74 -67 74 -35 0 -43 -13 -43 -67 0 -49 -27 -147 -56
-204 -47 -93 -130 -153 -257 -185 -131 -34 -268 6 -357 103 -79 87 -153 259
-166 389 -4 36 -11 67 -17 71 -6 3 -7 -18 -3 -58z"/>
<path d="M1082 894 c-29 -19 -50 -39 -47 -43 19 -32 135 -15 135 20 0 23 -17
59 -28 58 -4 0 -31 -16 -60 -35z"/>
<path d="M1515 664 c-22 -13 -48 -24 -57 -24 -10 0 -18 -3 -18 -6 0 -3 21 -34
46 -68 62 -81 126 -215 132 -275 7 -79 -31 -131 -96 -131 -28 0 -62 26 -62 48
0 18 -17 23 -24 7 -8 -21 49 -82 85 -90 45 -10 99 22 127 77 29 56 39 171 23
248 -12 54 -97 241 -109 239 -4 0 -25 -12 -47 -25z"/>
</g>
</svg>
